<svg width="1792.0000000000002" height="1792.0000000000002" xmlns="http://www.w3.org/2000/svg">
 <metadata id="metadata3035">image/svg+xml</metadata>

 <g>
  <title>background</title>
  <rect fill="none" id="canvas_background" height="402" width="582" y="-1" x="-1"/>
 </g>
 <g>
  <title>Layer 1</title>
  <g id="g3027" transform="matrix(1, 0, 0, -1, 121.492, 1285.42)">
   <path fill="currentColor" id="path3029" d="m1286.508057,389.420074q0,104.000031 -40.5,198.500031q-40.5,94.5 -109.5,163.5q-69,69 -163.499939,109.5q-94.5,40.5 -198.5,40.5q-104,0 -198.5,-40.5q-94.500122,-40.5 -163.500122,-109.5q-69,-69 -109.5,-163.5q-40.499969,-94.5 -40.499969,-198.500031q0,-104 40.499969,-198.5q40.5,-94.499992 109.5,-163.499996q69,-69.000004 163.500122,-109.499996q94.5,-40.5 198.5,-40.5q104,0 198.5,40.5q94.499939,40.499992 163.499939,109.499996q69,69.000004 109.5,163.499996q40.5,94.5 40.5,198.5zm256,0q0,-209 -103,-385.499998q-103,-176.500002 -279.5,-279.499971q-176.499939,-103.000031 -385.499939,-103.000031q-209,0 -385.500122,103.000031q-176.499969,102.999969 -279.499908,279.499971q-103.000023,176.499998 -103.000023,385.499998q0,209.000031 103.000023,385.500031q102.999939,176.5 279.499908,279.499817q176.500122,103 385.500122,103q209,0 385.499939,-103q176.5,-102.999817 279.5,-279.499817q103,-176.5 103,-385.500031z"/>
  </g>
  <text transform="matrix(1.96552, 0, 0, 1.96552, -1510.39, -1585.32)" font-weight="bold" xml:space="preserve" text-anchor="start" font-family="Georgia, Times, 'Times New Roman', serif" font-size="250" id="svg_2" y="1663.982531" x="1567.725114" stroke-width="0" stroke="#000" fill="#000000">I</text>
 </g>
</svg>